<svg width="30" height="22" viewBox="0 0 30 22" fill="none" xmlns="http://www.w3.org/2000/svg">
<g clip-path="url(#clip0_72_411)">
<path d="M11.9781 2.93377C12.1407 2.78231 12.271 2.59966 12.3615 2.39672C12.4519 2.19378 12.5005 1.97471 12.5044 1.75257C12.5083 1.53043 12.4675 1.30978 12.3843 1.10377C12.3011 0.897769 12.1772 0.710635 12.0201 0.553535C11.863 0.396435 11.6759 0.272587 11.4699 0.189379C11.2639 0.10617 11.0432 0.0653078 10.8211 0.0692272C10.599 0.0731466 10.3799 0.121768 10.1769 0.212191C9.974 0.302614 9.79135 0.432987 9.63989 0.595531L0.816357 9.41906C0.50654 9.72927 0.33252 10.1498 0.33252 10.5882C0.33252 11.0266 0.50654 11.4471 0.816357 11.7573L9.63989 20.5808C9.79135 20.7434 9.974 20.8737 10.1769 20.9642C10.3799 21.0546 10.599 21.1032 10.8211 21.1071C11.0432 21.111 11.2639 21.0702 11.4699 20.987C11.6759 20.9038 11.863 20.7799 12.0201 20.6228C12.1772 20.4657 12.3011 20.2786 12.3843 20.0726C12.4675 19.8666 12.5083 19.6459 12.5044 19.4238C12.5005 19.2017 12.4519 18.9826 12.3615 18.7796C12.271 18.5767 12.1407 18.3941 11.9781 18.2426L5.97812 12.2426H27.3531C27.7919 12.2426 28.2127 12.0683 28.523 11.758C28.8332 11.4478 29.0075 11.027 29.0075 10.5882C29.0075 10.1494 28.8332 9.7286 28.523 9.41833C28.2127 9.10807 27.7919 8.93377 27.3531 8.93377H5.97812L11.9781 2.93377Z" fill="#5B5959"/>
</g>
<defs>
<clipPath id="clip0_72_411">
<rect width="30" height="21.1765" fill="white"/>
</clipPath>
</defs>
</svg>
