<?xml version="1.0" encoding="UTF-8"?>
<svg version="1.1" xmlns="http://www.w3.org/2000/svg" width="96" height="96">
<path d="M0 0 C4.6951587 2.12969515 8.94910346 4.86610698 13.25 7.6875 C14.40501046 8.41797923 15.56125556 9.14651009 16.71875 9.87304688 C30.97424707 18.94849414 30.97424707 18.94849414 33 23 C33.90628438 32.02794344 32.11777683 41.01668995 30.60131836 49.88110352 C30.18572465 52.32293111 29.79032337 54.76747073 29.39648438 57.21289062 C29.1340117 58.78405497 28.87038059 60.35502633 28.60546875 61.92578125 C28.43183052 63.00875237 28.43183052 63.00875237 28.25468445 64.11360168 C27.2680821 69.74851775 25.73295049 73.98680269 21.98608398 78.33959961 C17.48473565 80.84255685 13.29434906 80.59142825 8.22265625 80.56640625 C7.17855087 80.57260483 6.1344455 80.57880341 5.05870056 80.58518982 C2.8540032 80.59228312 0.64925223 80.5891226 -1.55541992 80.57641602 C-4.92271891 80.56256082 -8.28723291 80.5966182 -11.65429688 80.63476562 C-13.79947984 80.63571696 -15.94466628 80.63385722 -18.08984375 80.62890625 C-19.09313217 80.64216446 -20.09642059 80.65542267 -21.13011169 80.66908264 C-25.56185133 80.6102694 -28.96019271 80.54558272 -32.55688477 77.77319336 C-36.7640733 72.99759083 -37.49052015 68.13206791 -38.5078125 61.98828125 C-38.63815887 61.22001511 -38.76850525 60.45174896 -38.90280151 59.66020203 C-39.17619414 58.03770303 -39.44665333 56.41470735 -39.71435547 54.79125977 C-40.12106937 52.33622633 -40.54235432 49.88400196 -40.96484375 47.43164062 C-44.3930387 27.16668906 -44.3930387 27.16668906 -41.5703125 20.75 C-38.09420251 17.03087929 -34.22541789 14.59939887 -29.875 12 C-29.01914307 11.47889648 -28.16328613 10.95779297 -27.28149414 10.42089844 C-25.6002594 9.39805268 -23.91650409 8.37933583 -22.22998047 7.36523438 C-20.41617255 6.25478836 -18.64095477 5.08149634 -16.87890625 3.890625 C-11.23061716 0.09497473 -6.78608608 -1.30341288 0 0 Z M-10.21875 8.37890625 C-11.06469727 8.88446045 -11.91064453 9.39001465 -12.78222656 9.91088867 C-16.39392998 12.10574796 -19.99974212 14.30970772 -23.59570312 16.53027344 C-25.56337308 17.73309362 -27.54437702 18.89597992 -29.546875 20.0390625 C-30.43890625 20.58304688 -31.3309375 21.12703125 -32.25 21.6875 C-32.99765625 22.12449219 -33.7453125 22.56148437 -34.515625 23.01171875 C-37.54268986 27.06639246 -36.14281358 33.44149447 -35.52856445 38.26293945 C-35.31514394 39.71430435 -35.09311801 41.16442534 -34.86328125 42.61328125 C-34.74196335 43.39011765 -34.62064545 44.16695404 -34.49565125 44.96733093 C-34.23815869 46.59222174 -33.97662778 48.21647744 -33.71118164 49.84008789 C-33.31112842 52.32100579 -32.9416249 54.80536722 -32.57226562 57.29101562 C-32.31697016 58.87790549 -32.05987191 60.46450661 -31.80078125 62.05078125 C-31.695345 62.78935867 -31.58990875 63.5279361 -31.48127747 64.28889465 C-30.89520354 67.67277473 -30.15926518 69.80823948 -27.95385742 72.46362305 C-23.87604492 74.58459785 -20.4729145 74.57531082 -15.9375 74.53125 C-14.63413696 74.53699036 -14.63413696 74.53699036 -13.30444336 74.54284668 C-11.47215614 74.54556179 -9.6398299 74.53822867 -7.80761719 74.52148438 C-5.00888353 74.50006798 -2.21271667 74.52129855 0.5859375 74.546875 C2.36979731 74.54423165 4.15365553 74.53910652 5.9375 74.53125 C6.77095947 74.53934692 7.60441895 74.54744385 8.46313477 74.55578613 C12.23154136 74.49520517 14.56560586 74.22593952 17.95385742 72.46362305 C20.65194696 69.21503439 21.22065069 66.11457656 21.80078125 62.05078125 C21.92688278 61.27872849 22.05298431 60.50667572 22.1829071 59.71122742 C22.4453941 58.07963575 22.69777424 56.44639004 22.94067383 54.81176758 C23.30918847 52.33475881 23.70727032 49.86401165 24.11132812 47.39257812 C24.36373868 45.799757 24.6144439 44.20666451 24.86328125 42.61328125 C25.03661736 41.52059685 25.03661736 41.52059685 25.2134552 40.40583801 C25.96147706 35.31891991 26.51062801 30.13636411 26 25 C24.61100396 22.86992143 24.61100396 22.86992143 22.25 21.6875 C21.35796875 21.14351562 20.4659375 20.59953125 19.546875 20.0390625 C18.7415332 19.57935059 18.7415332 19.57935059 17.91992188 19.11035156 C15.56925471 17.75088637 13.2635654 16.32517287 10.953125 14.8984375 C7.38405099 12.71001806 3.81250566 10.52660308 0.21875 8.37890625 C-0.9269043 7.69163452 -0.9269043 7.69163452 -2.09570312 6.99047852 C-5.55059726 5.19349063 -7.07660126 6.49394846 -10.21875 8.37890625 Z " fill="#1C4D6B" transform="translate(53,8)"/>
<path d="M0 0 C2.86764189 3.04143837 3.93082321 4.94973816 4.375 9.125 C4.77381117 12.38305687 4.77381117 12.38305687 7.5703125 14.21875 C11.21017825 18.55464023 10.76392936 22.26416776 10.625 27.75 C10.63595703 28.69552734 10.64691406 29.64105469 10.65820312 30.61523438 C10.58544795 37.47847241 10.58544795 37.47847241 8.15234375 40.77734375 C2.92252059 44.30625246 -2.66844022 43.37171441 -8.8125 43.375 C-10.60880859 43.39336914 -10.60880859 43.39336914 -12.44140625 43.41210938 C-13.59253906 43.41404297 -14.74367188 43.41597656 -15.9296875 43.41796875 C-16.98526855 43.42207764 -18.04084961 43.42618652 -19.12841797 43.43041992 C-21.98354509 43.18351818 -23.5724942 42.7733014 -25.9375 41.1875 C-28.83341497 36.84362755 -28.34391314 32.92456174 -28.375 27.8125 C-28.40787109 26.86632812 -28.44074219 25.92015625 -28.47460938 24.9453125 C-28.52912468 17.88805875 -28.52912468 17.88805875 -25.4765625 14.2734375 C-24.63867188 13.58507812 -23.80078125 12.89671875 -22.9375 12.1875 C-22.0884069 10.18423902 -22.0884069 10.18423902 -21.875 8.1875 C-21.08272993 4.29950798 -19.84269668 2.00969106 -16.9375 -0.8125 C-11.62292821 -4.15308798 -5.14046856 -3.17177847 0 0 Z M-13.1875 5.9375 C-15.34679374 8.23866172 -15.34679374 8.23866172 -14.9375 12.1875 C-10.9775 12.1875 -7.0175 12.1875 -2.9375 12.1875 C-3.20406572 9.25306598 -3.20406572 9.25306598 -3.9375 6.1875 C-7.59288618 3.75057588 -9.58677212 3.13693387 -13.1875 5.9375 Z M-20.9375 19.1875 C-20.9375 24.7975 -20.9375 30.4075 -20.9375 36.1875 C-17.12495377 36.21432792 -13.31259388 36.23425477 -9.5 36.25 C-8.41138672 36.25837891 -7.32277344 36.26675781 -6.20117188 36.27539062 C-4.64946289 36.28022461 -4.64946289 36.28022461 -3.06640625 36.28515625 C-2.10806885 36.29039307 -1.14973145 36.29562988 -0.16235352 36.30102539 C2.03535339 36.4380313 2.03535339 36.4380313 3.0625 35.1875 C3.13575436 32.4888095 3.15472351 29.82247444 3.125 27.125 C3.0940625 23.1959375 3.0940625 23.1959375 3.0625 19.1875 C-4.8575 19.1875 -12.7775 19.1875 -20.9375 19.1875 Z " fill="#1C4D6B" transform="translate(56.9375,30.8125)"/>
</svg>
