<svg width="50" height="50" viewBox="0 0 50 50" fill="none" xmlns="http://www.w3.org/2000/svg">
<path d="M10.4165 35.4167C7.46859 35.4167 5.99567 35.4167 5.08317 36.1792C4.1665 36.9417 4.1665 38.1708 4.1665 40.625C4.1665 43.0792 4.16859 44.3083 5.08317 45.0708C5.99775 45.8333 7.46859 45.8333 10.4165 45.8333C13.3644 45.8333 14.8373 45.8333 15.7498 45.0708C16.6665 44.3083 16.6665 43.0792 16.6665 40.625C16.6665 38.1708 16.6644 36.9417 15.7498 36.1792C14.8353 35.4167 13.3644 35.4167 10.4165 35.4167ZM10.4165 35.4167C10.4165 30.2458 11.9665 29.1667 19.3915 29.1667H30.6082C38.0332 29.1667 39.5832 30.2458 39.5832 35.4167M39.5832 35.4167C36.6353 35.4167 35.1623 35.4167 34.2498 36.1792C33.3332 36.9417 33.3332 38.1708 33.3332 40.625C33.3332 43.0792 33.3353 44.3083 34.2498 45.0708C35.1644 45.8333 36.6353 45.8333 39.5832 45.8333C42.5311 45.8333 44.004 45.8333 44.9165 45.0708C45.8332 44.3083 45.8332 43.0792 45.8332 40.625C45.8332 38.1708 45.8311 36.9417 44.9165 36.1792C44.0019 35.4167 42.5311 35.4167 39.5832 35.4167ZM24.9998 13.5417L27.0832 10.4167M34.3748 13.5417C34.3748 16.0281 33.3871 18.4126 31.629 20.1708C29.8708 21.9289 27.4862 22.9167 24.9998 22.9167C22.5134 22.9167 20.1289 21.9289 18.3707 20.1708C16.6126 18.4126 15.6248 16.0281 15.6248 13.5417C15.6248 11.0553 16.6126 8.67068 18.3707 6.91253C20.1289 5.15438 22.5134 4.16666 24.9998 4.16666C27.4862 4.16666 29.8708 5.15438 31.629 6.91253C33.3871 8.67068 34.3748 11.0553 34.3748 13.5417Z" stroke="#5B5959" stroke-width="3" stroke-linecap="round" stroke-linejoin="round"/>
</svg>
