<svg width="50" height="50" viewBox="0 0 50 50" fill="none" xmlns="http://www.w3.org/2000/svg">
<path d="M10.4166 35.4167C7.46871 35.4167 5.99579 35.4167 5.08329 36.1792C4.16663 36.9417 4.16663 38.1709 4.16663 40.625C4.16663 43.0792 4.16871 44.3084 5.08329 45.0709C5.99788 45.8334 7.46871 45.8334 10.4166 45.8334C13.3645 45.8334 14.8375 45.8334 15.75 45.0709C16.6666 44.3084 16.6666 43.0792 16.6666 40.625C16.6666 38.1709 16.6645 36.9417 15.75 36.1792C14.8354 35.4167 13.3645 35.4167 10.4166 35.4167ZM10.4166 35.4167C10.4166 30.2459 11.9666 29.1667 19.3916 29.1667H30.6083C38.0333 29.1667 39.5833 30.2459 39.5833 35.4167M39.5833 35.4167C36.6354 35.4167 35.1625 35.4167 34.25 36.1792C33.3333 36.9417 33.3333 38.1709 33.3333 40.625C33.3333 43.0792 33.3354 44.3084 34.25 45.0709C35.1645 45.8334 36.6354 45.8334 39.5833 45.8334C42.5312 45.8334 44.0041 45.8334 44.9166 45.0709C45.8333 44.3084 45.8333 43.0792 45.8333 40.625C45.8333 38.1709 45.8312 36.9417 44.9166 36.1792C44.002 35.4167 42.5312 35.4167 39.5833 35.4167ZM25 13.5417L27.0833 10.4167M34.375 13.5417C34.375 16.0281 33.3872 18.4127 31.6291 20.1708C29.8709 21.929 27.4864 22.9167 25 22.9167C22.5136 22.9167 20.129 21.929 18.3708 20.1708C16.6127 18.4127 15.625 16.0281 15.625 13.5417C15.625 11.0553 16.6127 8.67071 18.3708 6.91256C20.129 5.15441 22.5136 4.16669 25 4.16669C27.4864 4.16669 29.8709 5.15441 31.6291 6.91256C33.3872 8.67071 34.375 11.0553 34.375 13.5417Z" stroke="#1C4D6B" stroke-width="3" stroke-linecap="round" stroke-linejoin="round"/>
</svg>
