<svg width="50" height="50" viewBox="0 0 50 50" fill="none" xmlns="http://www.w3.org/2000/svg">
<path d="M16.6667 18.75C16.0764 18.75 15.582 18.55 15.1833 18.15C14.7847 17.75 14.5847 17.2556 14.5833 16.6667C14.582 16.0778 14.782 15.5833 15.1833 15.1833C15.5847 14.7833 16.0792 14.5833 16.6667 14.5833H41.6667C42.257 14.5833 42.7521 14.7833 43.1521 15.1833C43.5521 15.5833 43.7514 16.0778 43.75 16.6667C43.7486 17.2556 43.5486 17.7507 43.15 18.1521C42.7514 18.5535 42.257 18.7528 41.6667 18.75H16.6667ZM16.6667 27.0833C16.0764 27.0833 15.582 26.8833 15.1833 26.4833C14.7847 26.0833 14.5847 25.5889 14.5833 25C14.582 24.4111 14.782 23.9167 15.1833 23.5167C15.5847 23.1167 16.0792 22.9167 16.6667 22.9167H41.6667C42.257 22.9167 42.7521 23.1167 43.1521 23.5167C43.5521 23.9167 43.7514 24.4111 43.75 25C43.7486 25.5889 43.5486 26.084 43.15 26.4854C42.7514 26.8868 42.257 27.0861 41.6667 27.0833H16.6667ZM16.6667 35.4167C16.0764 35.4167 15.582 35.2167 15.1833 34.8167C14.7847 34.4167 14.5847 33.9222 14.5833 33.3333C14.582 32.7445 14.782 32.25 15.1833 31.85C15.5847 31.45 16.0792 31.25 16.6667 31.25H41.6667C42.257 31.25 42.7521 31.45 43.1521 31.85C43.5521 32.25 43.7514 32.7445 43.75 33.3333C43.7486 33.9222 43.5486 34.4174 43.15 34.8188C42.7514 35.2201 42.257 35.4195 41.6667 35.4167H16.6667ZM8.33334 18.75C7.74306 18.75 7.24862 18.55 6.85001 18.15C6.4514 17.75 6.2514 17.2556 6.25001 16.6667C6.24862 16.0778 6.44862 15.5833 6.85001 15.1833C7.2514 14.7833 7.74584 14.5833 8.33334 14.5833C8.92084 14.5833 9.41598 14.7833 9.81876 15.1833C10.2215 15.5833 10.4208 16.0778 10.4167 16.6667C10.4125 17.2556 10.2125 17.7507 9.81667 18.1521C9.42084 18.5535 8.9264 18.7528 8.33334 18.75ZM8.33334 27.0833C7.74306 27.0833 7.24862 26.8833 6.85001 26.4833C6.4514 26.0833 6.2514 25.5889 6.25001 25C6.24862 24.4111 6.44862 23.9167 6.85001 23.5167C7.2514 23.1167 7.74584 22.9167 8.33334 22.9167C8.92084 22.9167 9.41598 23.1167 9.81876 23.5167C10.2215 23.9167 10.4208 24.4111 10.4167 25C10.4125 25.5889 10.2125 26.084 9.81667 26.4854C9.42084 26.8868 8.9264 27.0861 8.33334 27.0833ZM8.33334 35.4167C7.74306 35.4167 7.24862 35.2167 6.85001 34.8167C6.4514 34.4167 6.2514 33.9222 6.25001 33.3333C6.24862 32.7445 6.44862 32.25 6.85001 31.85C7.2514 31.45 7.74584 31.25 8.33334 31.25C8.92084 31.25 9.41598 31.45 9.81876 31.85C10.2215 32.25 10.4208 32.7445 10.4167 33.3333C10.4125 33.9222 10.2125 34.4174 9.81667 34.8188C9.42084 35.2201 8.9264 35.4195 8.33334 35.4167Z" fill="#5B5959"/>
</svg>
