<svg width="50" height="50" viewBox="0 0 50 50" fill="none" xmlns="http://www.w3.org/2000/svg">
<path d="M46.875 9.375V6.25H42.1875V3.125H39.0625V6.25H37.5C35.7766 6.25 34.375 7.65312 34.375 9.375V12.5C34.375 14.2234 35.7766 15.625 37.5 15.625H43.75V18.75H34.375V21.875H39.0625V25H42.1875V21.875H43.75C45.4734 21.875 46.875 20.4734 46.875 18.75V15.625C46.875 13.9031 45.4734 12.5 43.75 12.5H37.5V9.375H46.875ZM37.5 31.25V34.375H41.5406L35.9375 39.9781L32.3563 36.3953C32.0637 36.1026 31.667 35.938 31.2531 35.9375H31.25C30.8362 35.938 30.4395 36.1026 30.1469 36.3953L21.875 44.6656L24.0844 46.875L31.2516 39.7094L34.8328 43.2922C35.1258 43.5851 35.5232 43.7497 35.9375 43.7497C36.3518 43.7497 36.7492 43.5851 37.0422 43.2922L43.75 36.5844V40.625H46.875V31.25H37.5ZM6.25 46.875H3.125V39.0625C3.125 33.0312 8.03125 28.125 14.0625 28.125H23.4375C26.5453 28.125 29.5156 29.4531 31.5891 31.7703L29.2609 33.8547C28.5281 33.0353 27.6307 32.3797 26.6272 31.9309C25.6237 31.482 24.5368 31.25 23.4375 31.25H14.0625C9.75469 31.25 6.25 34.7547 6.25 39.0625V46.875ZM18.75 25C21.6508 25 24.4328 23.8477 26.484 21.7965C28.5352 19.7453 29.6875 16.9633 29.6875 14.0625C29.6875 11.1617 28.5352 8.3797 26.484 6.32852C24.4328 4.27734 21.6508 3.125 18.75 3.125C15.8492 3.125 13.0672 4.27734 11.016 6.32852C8.96484 8.3797 7.8125 11.1617 7.8125 14.0625C7.8125 16.9633 8.96484 19.7453 11.016 21.7965C13.0672 23.8477 15.8492 25 18.75 25ZM18.75 6.25C20.822 6.25 22.8091 7.0731 24.2743 8.53823C25.7394 10.0034 26.5625 11.9905 26.5625 14.0625C26.5625 16.1345 25.7394 18.1216 24.2743 19.5868C22.8091 21.0519 20.822 21.875 18.75 21.875C16.678 21.875 14.6909 21.0519 13.2257 19.5868C11.7606 18.1216 10.9375 16.1345 10.9375 14.0625C10.9375 11.9905 11.7606 10.0034 13.2257 8.53823C14.6909 7.0731 16.678 6.25 18.75 6.25Z" fill="#5B5959"/>
</svg>
