<svg width="50" height="50" viewBox="0 0 50 50" fill="none" xmlns="http://www.w3.org/2000/svg">
<path d="M41.7 4.16666C39.3813 4.16666 37.5 9.76249 37.5 16.6667H41.7C43.725 16.6667 44.7354 16.6667 45.3625 15.9687C45.9875 15.2687 45.8792 14.3479 45.6625 12.5083C45.0833 7.64582 43.5292 4.16666 41.7 4.16666Z" stroke="#1C4D6B" stroke-width="3" stroke-linecap="round" stroke-linejoin="round"/>
<path d="M37.4998 16.7792V38.8458C37.4998 41.9937 37.4998 43.5687 36.5373 44.1896C34.9644 45.2021 32.5332 43.0771 31.3103 42.3062C30.2998 41.6687 29.7957 41.3521 29.2353 41.3333C28.629 41.3125 28.1144 41.6187 27.0228 42.3062L23.0415 44.8167C21.9665 45.4937 21.4311 45.8333 20.8332 45.8333C20.2353 45.8333 19.6978 45.4937 18.6248 44.8167L14.6457 42.3062C13.6332 41.6687 13.129 41.3521 12.5686 41.3333C11.9623 41.3125 11.4478 41.6187 10.3561 42.3062C9.13317 43.0771 6.70192 45.2021 5.12692 44.1896C4.1665 43.5687 4.1665 41.9958 4.1665 38.8458V16.7792C4.1665 10.8333 4.1665 7.86249 5.99775 6.01457C7.82692 4.16666 10.7748 4.16666 16.6665 4.16666H41.6665" stroke="#1C4D6B" stroke-width="3" stroke-linecap="round" stroke-linejoin="round"/>
<path d="M20.8332 16.6666C18.5311 16.6666 16.6665 18.0666 16.6665 19.7916C16.6665 21.5166 18.5311 22.9166 20.8332 22.9166C23.1353 22.9166 24.9998 24.3166 24.9998 26.0416C24.9998 27.7666 23.1353 29.1666 20.8332 29.1666M20.8332 16.6666C22.6457 16.6666 24.1915 17.5354 24.7623 18.75M20.8332 16.6666V14.5833M20.8332 29.1666C19.0207 29.1666 17.4748 28.2979 16.904 27.0833M20.8332 29.1666V31.25" stroke="#1C4D6B" stroke-width="3" stroke-linecap="round" stroke-linejoin="round"/>
</svg>
