<svg width="17" height="16" viewBox="0 0 17 16" fill="none" xmlns="http://www.w3.org/2000/svg">
<path d="M7.4585 1.54171H4.54183C3.65777 1.54171 2.80993 1.8929 2.18481 2.51802C1.55969 3.14314 1.2085 3.99099 1.2085 4.87504V11.9584C1.2085 12.8424 1.55969 13.6903 2.18481 14.3154C2.80993 14.9405 3.65777 15.2917 4.54183 15.2917H11.6252C12.5092 15.2917 13.3571 14.9405 13.9822 14.3154C14.6073 13.6903 14.9585 12.8424 14.9585 11.9584V9.04171M10.3752 0.708374H14.9585C15.1885 0.708374 15.3968 0.801707 15.5477 0.952541M15.5477 0.952541C15.704 1.10878 15.7918 1.32071 15.7918 1.54171V6.12504M15.5477 0.952541L14.9585 1.54171L9.54183 6.95837" stroke="white" stroke-width="1.25" stroke-linecap="round" stroke-linejoin="round"/>
</svg>
