<svg width="24" height="24" viewBox="0 0 24 24" fill="none" xmlns="http://www.w3.org/2000/svg">
<path d="M15 16H18C18.2833 16 18.521 15.904 18.713 15.712C18.905 15.52 19.0007 15.2827 19 15V9C19 8.71667 18.904 8.47933 18.712 8.288C18.52 8.09667 18.2827 8.00067 18 8H15C14.7167 8 14.4793 8.096 14.288 8.288C14.0967 8.48 14.0007 8.71733 14 9V15C14 15.2833 14.096 15.521 14.288 15.713C14.48 15.905 14.7173 16.0007 15 16ZM16 14V10H17V14H16ZM9 16H12C12.2833 16 12.521 15.904 12.713 15.712C12.905 15.52 13.0007 15.2827 13 15V9C13 8.71667 12.904 8.47933 12.712 8.288C12.52 8.09667 12.2827 8.00067 12 8H9C8.71667 8 8.47933 8.096 8.288 8.288C8.09667 8.48 8.00067 8.71733 8 9V15C8 15.2833 8.096 15.521 8.288 15.713C8.48 15.905 8.71733 16.0007 9 16ZM10 14V10H11V14H10ZM7 15V9C7 8.71667 6.904 8.47933 6.712 8.288C6.52 8.09667 6.28267 8.00067 6 8C5.71733 7.99933 5.48 8.09533 5.288 8.288C5.096 8.48067 5 8.718 5 9V15C5 15.2833 5.096 15.521 5.288 15.713C5.48 15.905 5.71733 16.0007 6 16C6.28267 15.9993 6.52033 15.9033 6.713 15.712C6.90567 15.5207 7.00133 15.2833 7 15ZM2 18V6C2 5.45 2.196 4.97933 2.588 4.588C2.98 4.19667 3.45067 4.00067 4 4H20C20.55 4 21.021 4.196 21.413 4.588C21.805 4.98 22.0007 5.45067 22 6V18C22 18.55 21.8043 19.021 21.413 19.413C21.0217 19.805 20.5507 20.0007 20 20H4C3.45 20 2.97933 19.8043 2.588 19.413C2.19667 19.0217 2.00067 18.5507 2 18ZM4 18H20V6H4V18Z" fill="#5B5959"/>
</svg>
