<svg width="16" height="19" viewBox="0 0 16 19" fill="none" xmlns="http://www.w3.org/2000/svg">
<path fill-rule="evenodd" clip-rule="evenodd" d="M2.16689 6.50002C2.16689 4.95292 2.78147 3.46919 3.87544 2.37523C4.9694 1.28127 6.45313 0.666687 8.00023 0.666687C9.54732 0.666687 11.0311 1.28127 12.125 2.37523C13.219 3.46919 13.8336 4.95292 13.8336 6.50002V9.63669L15.3519 12.6734C15.4218 12.8131 15.4548 12.9684 15.4478 13.1245C15.4407 13.2807 15.3939 13.4324 15.3118 13.5653C15.2296 13.6982 15.1148 13.8079 14.9783 13.884C14.8418 13.9601 14.6882 14 14.5319 14H11.2286C11.0432 14.7152 10.6256 15.3486 10.0413 15.8008C9.45697 16.253 8.73906 16.4983 8.00023 16.4983C7.2614 16.4983 6.54348 16.253 5.95917 15.8008C5.37487 15.3486 4.95726 14.7152 4.77189 14H1.46856C1.31229 14 1.15861 13.9601 1.02212 13.884C0.88562 13.8079 0.770842 13.6982 0.688681 13.5653C0.60652 13.4324 0.559706 13.2807 0.552684 13.1245C0.545662 12.9684 0.578665 12.8131 0.64856 12.6734L2.16689 9.63669V6.50002ZM6.55689 14C6.70318 14.2534 6.91357 14.4637 7.16693 14.61C7.42029 14.7563 7.70768 14.8333 8.00023 14.8333C8.29277 14.8333 8.58017 14.7563 8.83352 14.61C9.08688 14.4637 9.29727 14.2534 9.44356 14H6.55689ZM8.00023 2.33335C6.89516 2.33335 5.83535 2.77234 5.05395 3.55374C4.27255 4.33514 3.83356 5.39495 3.83356 6.50002V9.63669C3.83354 9.8953 3.77334 10.1504 3.65773 10.3817L2.68273 12.3334H13.3186L12.3436 10.3817C12.2277 10.1504 12.1672 9.89536 12.1669 9.63669V6.50002C12.1669 5.39495 11.7279 4.33514 10.9465 3.55374C10.1651 2.77234 9.1053 2.33335 8.00023 2.33335Z" fill="#1C4D6B"/>
</svg>
