<svg width="50" height="50" viewBox="0 0 50 50" fill="none" xmlns="http://www.w3.org/2000/svg">
<path d="M16.6667 22.9166C19.4294 22.9166 22.0789 21.8192 24.0324 19.8657C25.9859 17.9122 27.0834 15.2627 27.0834 12.5C27.0834 9.73731 25.9859 7.08779 24.0324 5.13428C22.0789 3.18078 19.4294 2.08331 16.6667 2.08331C13.904 2.08331 11.2545 3.18078 9.30101 5.13428C7.34751 7.08779 6.25004 9.73731 6.25004 12.5C6.25004 15.2627 7.34751 17.9122 9.30101 19.8657C11.2545 21.8192 13.904 22.9166 16.6667 22.9166ZM16.6667 22.9166C20.8605 22.9166 24.525 24.5 27.1313 27.1312M16.6667 22.9166C8.33337 22.9166 2.08337 29.1666 2.08337 37.5V47.9166H16.6667M47.9167 31.25L41.6667 25L29.1667 37.5M36.4584 30.2083L42.7084 36.4583M20.8334 40.625C20.8339 42.0069 21.3834 43.3319 22.3609 44.3087C23.3385 45.2854 24.664 45.8339 26.0459 45.8333C27.4278 45.8328 28.7528 45.2833 29.7296 44.3057C30.7063 43.3282 31.2548 42.0027 31.2542 40.6208C31.2537 39.2389 30.7042 37.9139 29.7266 36.9371C28.7491 35.9603 27.4236 35.4119 26.0417 35.4125C24.6598 35.413 23.3347 35.9625 22.358 36.94C21.3812 37.9176 20.8328 39.2431 20.8334 40.625Z" stroke="#1C4D6B" stroke-width="3"/>
</svg>
