<?xml version="1.0" encoding="UTF-8"?>
<svg version="1.1" xmlns="http://www.w3.org/2000/svg" width="1081" height="576">
<path d="M0 0 C18.81 0 37.62 0 57 0 C62.62444174 13.49866017 62.62444174 13.49866017 64.22558594 18.10839844 C64.59144806 19.15571136 64.95731018 20.20302429 65.33425903 21.28207397 C65.90356644 22.92908798 65.90356644 22.92908798 66.484375 24.609375 C66.89702606 25.79318756 67.30967712 26.97700012 67.73483276 28.19668579 C68.61768407 30.73043212 69.49929302 33.26456796 70.37872314 35.79949951 C72.48788187 41.87844764 74.6085584 47.95338297 76.72784805 54.02880478 C77.44613061 56.0882832 78.1639925 58.1479079 78.88180542 60.20755005 C82.75530968 71.31843248 86.6690082 82.41479561 90.60568237 93.50344849 C91.63074983 96.39119802 92.65456141 99.27938981 93.67797852 102.16772461 C96.56622647 110.31848971 99.45526586 118.46896346 102.35205078 126.61669922 C117.649155 169.65724488 132.27119651 212.72947771 144.38977051 256.78442383 C144.79710754 258.26335304 145.20653748 259.74170737 145.61804199 261.21948242 C146.19588273 263.29596977 146.76693916 265.37419981 147.3359375 267.453125 C147.65868652 268.62520508 147.98143555 269.79728516 148.31396484 271.00488281 C149 274 149 274 149 278 C149.66 278 150.32 278 151 278 C151.10183594 277.08863281 151.20367188 276.17726563 151.30859375 275.23828125 C157.05076888 235.65371547 174.27587596 195.45157841 188 158 C188.29503418 157.19479919 188.59006836 156.38959839 188.89404297 155.55999756 C193.05533448 144.21406114 197.25393714 132.88202808 201.4593811 121.55239868 C205.65643331 110.24033105 209.82260236 98.91692549 213.98965454 87.59378052 C217.53083371 77.9734423 221.07713404 68.35498986 224.62286377 58.73632812 C225.55676669 56.20254268 226.49052263 53.66870368 227.42401123 51.13476562 C230.24884587 43.46692282 233.07642784 35.80010451 235.90805054 28.13476562 C236.79918525 25.72106385 237.68935016 23.30700379 238.57852173 20.89257812 C239.80497486 17.56284217 241.03485068 14.23439067 242.265625 10.90625 C242.63123032 9.91129517 242.99683563 8.91634033 243.3735199 7.89123535 C243.70690872 6.99191284 244.04029755 6.09259033 244.38378906 5.16601562 C244.673526 4.38085571 244.96326294 3.5956958 245.26177979 2.78674316 C246 1 246 1 247 0 C248.77991924 -0.09370624 250.56356739 -0.11744271 252.34594727 -0.11352539 C254.05760826 -0.11341209 254.05760826 -0.11341209 255.80384827 -0.11329651 C257.0454924 -0.10813522 258.28713654 -0.10297394 259.56640625 -0.09765625 C261.46204567 -0.09553383 261.46204567 -0.09553383 263.39598083 -0.09336853 C266.76124889 -0.08870582 270.1264499 -0.0797148 273.49169922 -0.06866455 C276.9234967 -0.05844846 280.35530109 -0.05387049 283.78710938 -0.04882812 C290.52475824 -0.0377738 297.26237525 -0.0210171 304 0 C304.90308937 3.16835893 305.22985372 6.17568246 305.43539524 9.46067429 C305.5070542 10.57694128 305.57871316 11.69320827 305.6525436 12.84330153 C305.72744973 14.06973066 305.80235585 15.29615978 305.87953186 16.55975342 C305.96205733 17.86270237 306.0445828 19.16565133 306.12960905 20.50808358 C306.35875829 24.12785559 306.58322442 27.7479052 306.80692542 31.36801744 C307.04895311 35.27166141 307.29527133 39.17503496 307.54103088 43.07844543 C308.02205047 50.72990188 308.49897738 58.38160819 308.9744013 66.03341416 C309.36120304 72.25799264 309.74937252 78.48248439 310.13851738 84.70691681 C310.22157498 86.03551096 310.22157498 86.03551096 310.30631052 87.39094539 C310.41880725 89.19040466 310.53130573 90.98986383 310.64380591 92.78932288 C311.69952418 109.67876232 312.75045968 126.56849686 313.79989707 143.45832756 C314.75864804 158.8863917 315.7230683 174.31409515 316.69024367 189.74163327 C317.68396918 205.59341495 318.67400144 221.44542327 319.66001123 237.29768682 C320.21334812 246.19282729 320.76808996 255.08787453 321.3266468 263.9826889 C321.80257428 271.56240123 322.27496044 279.14232447 322.74290902 286.72253373 C322.98143486 290.58486296 323.22149715 294.44707914 323.46595001 298.30903816 C323.69042674 301.85610209 323.91018091 305.40342831 324.12643128 308.95100299 C324.24139844 310.81813328 324.36116588 312.68496619 324.4811998 314.5517776 C325.01469354 323.41789352 325 332.07125167 325 341 C310.48 341 295.96 341 281 341 C279.74286005 319.48791998 278.48993063 297.97560658 277.24392223 276.46287918 C276.66474584 266.46533753 276.08392421 256.46789736 275.4987793 246.47070312 C273.25335474 208.0922607 271.00987686 169.71507334 269.31252122 131.30776882 C269.22126588 129.24438682 269.12905157 127.18104931 269.03674889 125.11771393 C267.88404314 99.08694508 267.31164001 73.05379356 267 47 C266.69521729 48.00522705 266.39043457 49.0104541 266.07641602 50.04614258 C252.34985321 95.22301253 237.25998806 139.8339774 220.97328186 184.15039062 C217.72824203 192.98885086 214.52072232 201.84031921 211.33203125 210.69921875 C211.09581244 211.35546549 210.85959362 212.01171223 210.61621666 212.68784523 C209.42572947 215.99571083 208.23576976 219.30376591 207.04605103 222.61190796 C200.10620201 241.90743514 193.13464979 261.19019077 186.01147461 280.41894531 C182.85237471 288.95030866 179.72622469 297.49286326 176.62890625 306.046875 C176.25852234 307.06909653 175.88813843 308.09131805 175.50653076 309.14451599 C173.68839106 314.16348512 171.8733962 319.1835591 170.06298828 324.20532227 C169.41058853 326.0080139 168.75808735 327.81066883 168.10546875 329.61328125 C167.80516251 330.44974182 167.50485626 331.28620239 167.19544983 332.14801025 C165.1134579 337.8865421 165.1134579 337.8865421 164 339 C161.40640678 339.08851529 158.83960309 339.11525945 156.24609375 339.09765625 C155.47064713 339.0962413 154.6952005 339.09482635 153.89625549 339.09336853 C151.40996506 339.08775345 148.9237634 339.07519846 146.4375 339.0625 C144.75586067 339.05748694 143.07421994 339.0529237 141.39257812 339.04882812 C137.26168434 339.03777913 133.13085724 339.02050445 129 339 C121.1772297 316.13553162 113.38525834 293.26076365 105.625 270.375 C100.02349009 253.85599297 94.4185264 237.3381973 88.7958374 220.8263855 C87.81244966 217.9373521 86.83017836 215.04794113 85.84814453 212.15844727 C82.92160967 203.55145639 79.98653859 194.9477682 77.01365662 186.35665894 C61.68001608 142.04058596 47.95976756 97.34515556 36 52 C34.92781009 55.21656973 34.8001454 57.70312434 34.69042969 61.08837891 C34.64635986 62.36626785 34.60229004 63.6441568 34.55688477 64.96076965 C34.53506134 65.65186136 34.51323792 66.34295307 34.49075317 67.05498695 C34.42030377 69.27609987 34.34412449 71.49695104 34.26635742 73.71781921 C34.15273937 76.96431057 34.04066093 80.21084935 33.92956543 83.45742798 C32.87268208 114.09452826 31.49668247 144.70709329 29.75 175.3125 C29.67394028 176.6455826 29.67394028 176.6455826 29.59634399 178.00559616 C28.75732043 192.67197725 27.88260012 207.33618569 27 222 C26.92932312 223.17574081 26.85864624 224.35148163 26.78582764 225.56285095 C25.69792306 243.65655972 24.59766533 261.7494922 23.48609924 279.84176254 C23.25072974 283.67561347 23.0161345 287.50951123 22.78161621 291.34341431 C22.41213147 297.37658833 22.03906883 303.40953122 21.66319275 309.44231033 C21.5243724 311.67719741 21.38658709 313.91214906 21.24989319 316.14716721 C21.06182434 319.21769005 20.86981843 322.28794184 20.67675781 325.3581543 C20.62274181 326.25360616 20.56872581 327.14905802 20.51307297 328.07164478 C20.43351805 329.31696743 20.43351805 329.31696743 20.35235596 330.58744812 C20.30815144 331.29962337 20.26394691 332.01179861 20.21840286 332.74555492 C19.95021622 335.51388881 19.45724192 338.25654845 19 341 C4.81 341 -9.38 341 -24 341 C-22.85121404 316.87549477 -22.85121404 316.87549477 -22.05126953 305.50498962 C-21.96128252 304.19946642 -21.87129551 302.89394322 -21.77858162 301.5488587 C-21.53396308 298.00098755 -21.28658001 294.45331429 -21.03864765 290.90567338 C-20.76978238 287.05123841 -20.50358008 283.19661929 -20.23699951 279.34202576 C-19.71673409 271.82559545 -19.19399722 264.30933909 -18.6702733 256.79314905 C-18.24480894 250.68675561 -17.82015401 244.58030639 -17.39605713 238.47381783 C-17.30510653 237.16429687 -17.30510653 237.16429687 -17.21231854 235.82832094 C-17.08911147 234.0543641 -16.96590474 232.28040724 -16.84269834 230.50645036 C-15.69183813 213.93785906 -14.53798296 197.36947734 -13.38321233 180.8011582 C-12.3267134 165.64141192 -11.27411035 150.48139801 -10.22329831 135.32125657 C-9.14230439 119.7262113 -8.05865891 104.13135234 -6.97214317 88.53669077 C-6.36294504 79.79222736 -5.75481164 71.04769301 -5.1494751 62.30296135 C-4.63514456 54.87330636 -4.11832648 47.44382961 -3.59825277 40.01457434 C-3.33302388 36.22478208 -3.06896213 32.4349179 -2.80800629 28.6448288 C-2.5254616 24.54170442 -2.23738462 20.43898755 -1.94873047 16.33628845 C-1.86672457 15.13272467 -1.78471867 13.92916089 -1.70022774 12.68912548 C-1.62221869 11.59335896 -1.54420963 10.49759244 -1.46383667 9.36862087 C-1.39792768 8.42159028 -1.3320187 7.4745597 -1.26411247 6.49883121 C-1 4 -1 4 0 0 Z " fill="#000000" transform="translate(710,83)"/>
<path d="M0 0 C4.79105318 0.00008225 9.58201272 -0.00705664 14.37304688 -0.02050781 C38.48508024 -0.08680112 62.57351624 -0.04147555 86.66650391 1.00952148 C87.52909191 1.0441984 88.39167992 1.07887531 89.28040695 1.11460304 C115.4738043 2.20628358 138.08800619 7.21111414 156.82666016 26.91967773 C175.52887167 48.92227952 184.43704427 75.53257326 182.75244141 104.18530273 C178.68910997 141.01433227 151.35244012 174.40232525 125.75244141 199.18530273 C119.64882727 194.13941718 113.97078944 188.6889781 108.34277344 183.12573242 C107.27347412 182.07317682 106.19881528 181.02604111 105.11914062 179.98413086 C103.54724782 178.46670255 101.99217793 176.93373834 100.43994141 175.39624023 C99.51568359 174.49180176 98.59142578 173.58736328 97.63916016 172.65551758 C95.75244141 170.18530273 95.75244141 170.18530273 95.79272461 167.99438477 C97.37925318 165.00375217 100.18007552 163.49715395 102.93994141 161.68530273 C121.61360038 148.86102042 139.61010453 133.23802267 144.75244141 110.18530273 C146.37442138 92.8432039 143.07238352 76.85393524 132.86962891 62.54467773 C119.0388499 46.08213107 97.40644253 39.60946479 76.75244141 37.18530273 C71.57904143 36.90426766 66.41132281 36.87395729 61.23168945 36.86645508 C59.69821816 36.85702057 58.16475189 36.84673813 56.63129139 36.83568764 C52.56499786 36.80868236 48.49873988 36.79311649 44.43238068 36.78010559 C40.6013984 36.76606096 36.77051052 36.74145235 32.9395752 36.71777344 C21.77308482 36.65479522 10.60650515 36.60854732 -0.56005859 36.56030273 C-25.53693359 36.43655273 -50.51380859 36.31280273 -76.24755859 36.18530273 C-75.91755859 91.62530273 -75.58755859 147.06530273 -75.24755859 204.18530273 C-72.60755859 201.54530273 -69.96755859 198.90530273 -67.24755859 196.18530273 C-65.40553069 194.56948879 -63.56239974 192.95482096 -61.70458984 191.35717773 C-58.36613398 188.40617382 -55.1225988 185.35804493 -51.87255859 182.31030273 C-47.69759285 178.39649594 -43.51630539 174.49719369 -39.24755859 170.68530273 C-35.02355725 166.91186154 -30.88122075 163.05696501 -26.74755859 159.18530273 C-21.81294788 154.56407836 -16.84276493 149.99200233 -11.80224609 145.48608398 C-8.59486066 142.59747539 -5.41920646 139.6755447 -2.24755859 136.74780273 C-1.68278809 136.22686035 -1.11801758 135.70591797 -0.53613281 135.16918945 C1.5910908 133.20285375 3.70386705 131.23387709 5.75244141 129.18530273 C8.20802769 129.4026987 9.42352362 129.87305012 11.21728516 131.57592773 C11.94625 132.49631836 11.94625 132.49631836 12.68994141 133.43530273 C16.00683624 137.4184421 19.56374549 141.05255161 23.25244141 144.68530273 C27.28626834 148.67215231 31.14654177 152.70034116 34.81494141 157.02905273 C37.51274725 160.03144956 40.3828796 162.8479109 43.25244141 165.68530273 C47.28542251 169.67307104 51.14646603 173.70025179 54.81494141 178.02905273 C57.51274725 181.03144956 60.3828796 183.8479109 63.25244141 186.68530273 C67.28542251 190.67307104 71.14646603 194.70025179 74.81494141 199.02905273 C77.51274725 202.03144956 80.3828796 204.8479109 83.25244141 207.68530273 C87.28542251 211.67307104 91.14646603 215.70025179 94.81494141 220.02905273 C97.51274725 223.03144956 100.3828796 225.8479109 103.25244141 228.68530273 C107.28542251 232.67307104 111.14646603 236.70025179 114.81494141 241.02905273 C117.51274725 244.03144956 120.3828796 246.8479109 123.25244141 249.68530273 C127.28542251 253.67307104 131.14646603 257.70025179 134.81494141 262.02905273 C137.51274725 265.03144956 140.3828796 267.8479109 143.25244141 270.68530273 C147.28542251 274.67307104 151.14646603 278.70025179 154.81494141 283.02905273 C157.51274725 286.03144956 160.3828796 288.8479109 163.25244141 291.68530273 C167.28542251 295.67307104 171.14646603 299.70025179 174.81494141 304.02905273 C178.05334452 307.63308201 181.5391153 310.99130621 184.98364258 314.39697266 C188.5294763 317.91817184 191.90133814 321.5157263 195.11572266 325.34545898 C197.6620827 328.20783507 200.50444222 330.75987063 203.34619141 333.32592773 C204.75244141 335.18530273 204.75244141 335.18530273 204.77587891 337.15795898 C203.33444009 340.01332825 201.39790776 341.41283669 198.87744141 343.37280273 C194.23048895 347.00883425 194.23048895 347.00883425 189.71728516 350.80639648 C188.280625 352.04583008 188.280625 352.04583008 186.81494141 353.31030273 C185.50203125 354.45885742 185.50203125 354.45885742 184.16259766 355.63061523 C181.75244141 357.18530273 181.75244141 357.18530273 179.79284668 356.96887207 C177.42598741 356.0599358 176.3813361 355.0841381 174.69580078 353.20288086 C174.12228882 352.57450317 173.54877686 351.94612549 172.95788574 351.29870605 C172.34352661 350.61159546 171.72916748 349.92448486 171.09619141 349.21655273 C169.74978696 347.74546123 168.4007262 346.27679744 167.04931641 344.81030273 C166.34548828 344.0465332 165.64166016 343.28276367 164.91650391 342.49584961 C161.39392487 338.73482885 157.7514223 335.09811197 154.09619141 331.46655273 C153.37077148 330.7445166 152.64535156 330.02248047 151.89794922 329.27856445 C149.68486679 327.07869592 147.46911133 324.88155597 145.25244141 322.68530273 C142.28068232 319.7403969 139.31246219 316.79198544 136.34619141 313.84155273 C135.68566772 313.18932739 135.02514404 312.53710205 134.34460449 311.8651123 C130.50435766 308.04494456 126.88241193 304.10129241 123.34338379 300.00109863 C121.30221157 297.67144033 119.14657072 295.48309957 116.93994141 293.31030273 C115.66763672 292.04959961 115.66763672 292.04959961 114.36962891 290.76342773 C113.07412109 289.48725586 113.07412109 289.48725586 111.75244141 288.18530273 C106.50236225 283.01358297 101.38172368 277.83491064 96.58447266 272.23999023 C92.83554933 268.03544084 88.76399551 264.13698289 84.75244141 260.18530273 C83.02078562 258.47949255 81.29157714 256.77119407 79.56494141 255.06030273 C78.80826172 254.31522461 78.05158203 253.57014648 77.27197266 252.80249023 C75.37133175 250.82818108 73.60021564 248.84683112 71.82836914 246.76342773 C66.13419745 240.20901845 59.87335679 234.18362075 53.72509766 228.06030273 C52.36724792 226.70432115 51.00962108 225.34811634 49.65220642 223.99169922 C46.10185541 220.44514214 42.54851023 216.90160012 38.99450684 213.35870361 C35.35925062 209.73372914 31.72687041 206.10587524 28.09423828 202.47827148 C20.98309839 195.37781372 13.8687881 188.28054177 6.75244141 181.18530273 C3.1033297 183.21743016 0.27618836 185.41522857 -2.66731262 188.37127686 C-3.52086838 189.22352844 -4.37442413 190.07578003 -5.25384521 190.95385742 C-6.17707581 191.88584961 -7.1003064 192.8178418 -8.05151367 193.77807617 C-9.04374626 194.77251171 -10.03642885 195.76649841 -11.02952576 196.7600708 C-13.1631774 198.8966505 -15.29363974 201.03634259 -17.42167091 203.1785202 C-20.79228223 206.57146213 -24.1700262 209.95724313 -27.54875183 213.34210205 C-32.89775568 218.70248047 -38.24206785 224.06750846 -43.58434361 229.43459153 C-53.13639534 239.03093546 -62.69394184 248.62179848 -72.25684088 258.20733285 C-75.6082861 261.56714252 -78.95690104 264.92973975 -82.30320513 268.29466963 C-84.39431532 270.39649763 -86.4875164 272.49623439 -88.58121681 274.59548187 C-90.00078904 276.02012514 -91.41779 277.4473291 -92.83468628 278.87463379 C-97.26565847 283.31339682 -101.74219891 287.61588097 -106.52628613 291.67380142 C-108.31758223 293.2467926 -109.96707044 294.90831159 -111.62255859 296.62280273 C-114.24755859 299.18530273 -114.24755859 299.18530273 -116.24755859 299.18530273 C-116.24755859 200.84530273 -116.24755859 102.50530273 -116.24755859 1.18530273 C-77.48435021 0.58894568 -38.76201723 -0.00133084 0 0 Z " fill="#1B4D6A" transform="translate(449.24755859375,72.814697265625)"/>
<path d="M0 0 C-0.6186353 5.03745886 -1.65739411 9.80443909 -3.06640625 14.68359375 C-3.26475571 15.38396255 -3.46310516 16.08433136 -3.66746521 16.80592346 C-4.29489603 19.01768317 -4.92858302 21.22759163 -5.5625 23.4375 C-5.99195322 24.94714713 -6.42099366 26.45691175 -6.84960938 27.96679688 C-7.89497465 31.64590611 -8.94595013 35.3233699 -10 39 C-13.56038868 37.81897894 -17.11207946 36.61885114 -20.65234375 35.37890625 C-59.46251411 21.94956531 -104.55394693 19.94861407 -142.48364258 37.87011719 C-154.23454551 43.72636086 -164.50358355 50.92349312 -174 60 C-175.01320312 60.90105469 -175.01320312 60.90105469 -176.046875 61.8203125 C-200.78925991 84.68227616 -210.09093988 122.5975966 -211.875 154.875 C-213.40292751 195.45322873 -203.79101753 233.74262781 -176.79296875 264.515625 C-154.03467701 288.66728154 -119.91927148 298.5838764 -87.66650391 299.92797852 C-63.54749077 300.54336589 -39.65101086 296.99887882 -17.00024414 288.71435547 C-14.3482372 287.76723325 -11.67154697 286.89051566 -9 286 C-6.03 297.88 -3.06 309.76 0 322 C-6.70668364 325.35334182 -12.48996651 328.0930832 -19.5625 330.0625 C-20.44655518 330.31217529 -21.33061035 330.56185059 -22.24145508 330.8190918 C-39.72694605 335.53682081 -58.18831694 338.11650914 -76.30078125 338.203125 C-77.2578447 338.20882507 -78.21490814 338.21452515 -79.20097351 338.22039795 C-81.21868813 338.22978567 -83.23641766 338.23635692 -85.25415039 338.24023438 C-88.26672915 338.24985385 -91.27859879 338.28090209 -94.29101562 338.3125 C-111.15692799 338.40542347 -127.85118461 337.00059237 -144.125 332.3125 C-145.02549072 332.05903809 -145.92598145 331.80557617 -146.85375977 331.54443359 C-166.42263702 325.82089322 -185.16461153 316.89307113 -201 304 C-201.5554248 303.55672363 -202.11084961 303.11344727 -202.68310547 302.65673828 C-234.27140637 277.34204136 -251.7830111 240.57149911 -258 201 C-258.17571533 199.90896973 -258.17571533 199.90896973 -258.35498047 198.79589844 C-265.68644117 150.88540191 -257.32775298 96.2754067 -228.47875977 56.49145508 C-223.35681144 49.66570643 -217.90465334 43.16467477 -212 37 C-211.30777344 36.25621094 -210.61554688 35.51242188 -209.90234375 34.74609375 C-178.42546074 1.89816683 -131.31948749 -12.84184521 -86.80517578 -13.96826172 C-57.22866126 -14.30289591 -27.6529873 -10.92176809 0 0 Z " fill="#000000" transform="translate(279,91)"/>
<path d="M0 0 C6.39665423 2.87171567 10.10350002 7.60837191 13.58984375 13.53515625 C15.95654592 21.55564695 15.56611967 29.43509864 12.125 37.08203125 C9.16257055 41.84161319 5.04408522 45.57124243 -0.28515625 47.34765625 C-7.77866348 48.01593687 -13.15662076 47.87744335 -19.28515625 43.34765625 C-19.94515625 42.68765625 -20.60515625 42.02765625 -21.28515625 41.34765625 C-21.61515625 49.26765625 -21.94515625 57.18765625 -22.28515625 65.34765625 C-25.91515625 65.34765625 -29.54515625 65.34765625 -33.28515625 65.34765625 C-33.28515625 43.89765625 -33.28515625 22.44765625 -33.28515625 0.34765625 C-29.98515625 0.34765625 -26.68515625 0.34765625 -23.28515625 0.34765625 C-22.95515625 1.99765625 -22.62515625 3.64765625 -22.28515625 5.34765625 C-21.54265625 4.72890625 -20.80015625 4.11015625 -20.03515625 3.47265625 C-13.89482052 -1.27214863 -7.55063658 -2.15548087 0 0 Z M-20.9296875 14.08984375 C-23.66491067 18.64592154 -22.85841724 24.22652476 -22.28515625 29.34765625 C-20.19739769 33.83247094 -17.88765733 36.4648149 -13.28515625 38.34765625 C-9.36885989 38.92077279 -6.23522344 38.71472767 -2.53515625 37.28515625 C1.25685634 34.01981208 3.33358685 30.7815387 4.1015625 25.87890625 C4.34876688 20.2187783 3.63537287 16.68087264 -0.28515625 12.34765625 C-3.54617152 9.59391002 -5.54927024 8.45278282 -9.78515625 7.84765625 C-14.65648435 8.54356026 -17.58020024 10.54145582 -20.9296875 14.08984375 Z " fill="#000000" transform="translate(396.28515625,473.65234375)"/>
<path d="M0 0 C-1.05875074 3.40312738 -2.00902154 6.01353231 -4 9 C-4.66 8.731875 -5.32 8.46375 -6 8.1875 C-6.99 7.795625 -7.98 7.40375 -9 7 C-9.87205078 6.60361328 -9.87205078 6.60361328 -10.76171875 6.19921875 C-17.11984256 3.47799335 -23.50864945 2.64621101 -30.0625 5.1875 C-32.15912354 6.88463896 -32.15912354 6.88463896 -32.9375 9.4375 C-33.00963147 12.39489044 -32.62612449 13.55107599 -31 16 C-28.82458156 17.21661243 -28.82458156 17.21661243 -26.1875 18 C-25.2078125 18.33 -24.228125 18.66 -23.21875 19 C-21.01584708 19.68439702 -18.80710712 20.35020709 -16.59375 21 C-3.65188777 24.79944579 -3.65188777 24.79944579 0.8125 30.1875 C2.98325769 35.32876822 3.22708632 40.1184276 2.5625 45.625 C0.1472746 50.84188687 -3.65304802 54.43068227 -8.8828125 56.8828125 C-19.28272105 59.97232508 -31.06341282 58.3876356 -40.6875 53.6875 C-42.82919751 52.50956637 -44.92731338 51.29478942 -47 50 C-45.8905928 46.51329166 -44.73662334 43.22515763 -43 40 C-42.14921875 40.43119141 -42.14921875 40.43119141 -41.28125 40.87109375 C-39.0387716 41.98081337 -36.78130665 43.03513074 -34.5 44.0625 C-33.7471875 44.40410156 -32.994375 44.74570312 -32.21875 45.09765625 C-25.77625068 47.7177572 -18.3985377 48.19948389 -11.8125 45.875 C-9.73528981 44.06848211 -9.73528981 44.06848211 -9.4375 41.0625 C-10.14808992 37.19373264 -10.89323064 36.40432833 -14 34 C-17.18362635 32.77189599 -20.45020951 31.92111895 -23.75 31.0625 C-39.68031189 26.91447368 -39.68031189 26.91447368 -44 19.625 C-45.86883196 12.85048415 -45.33363884 8.20746542 -42 2 C-30.68812697 -11.45195711 -13.49247262 -7.949619 0 0 Z " fill="#000000" transform="translate(648,463)"/>
<path d="M0 0 C5.135625 -0.0825 10.27125 -0.165 15.5625 -0.25 C17.16939697 -0.28641602 18.77629395 -0.32283203 20.43188477 -0.36035156 C21.71377686 -0.3703418 22.99566895 -0.38033203 24.31640625 -0.390625 C25.62037354 -0.41157227 26.92434082 -0.43251953 28.26782227 -0.45410156 C33.68145772 0.20458634 38.36748721 2.54297839 41.8125 6.9375 C46.00328144 12.80459401 46.98262196 17.86306154 46 25 C43.99593333 31.43165582 41.25734832 35.597385 35.4296875 39.02954102 C30.7476882 40.89961208 25.96259279 40.51435765 21 40.3125 C19.93910156 40.28994141 18.87820312 40.26738281 17.78515625 40.24414062 C15.18948671 40.1856796 12.59455181 40.09601549 10 40 C10 47.26 10 54.52 10 62 C6.7 62 3.4 62 0 62 C0 41.54 0 21.08 0 0 Z M10 9 C10 16.26 10 23.52 10 31 C13.031875 31.103125 16.06375 31.20625 19.1875 31.3125 C20.13391357 31.35802002 21.08032715 31.40354004 22.05541992 31.45043945 C26.54121616 31.52424249 28.40486393 31.46711704 32.05078125 28.60546875 C35.16674187 24.44044724 35.55116131 21.12776865 35 16 C33.3218279 12.14020417 31.85005984 10.56664206 28 9 C25.8784414 8.72821919 25.8784414 8.72821919 23.671875 8.8046875 C22.9509668 8.80968262 22.23005859 8.81467773 21.48730469 8.81982422 C20.13233887 8.84713623 20.13233887 8.84713623 18.75 8.875 C14.41875 8.936875 14.41875 8.936875 10 9 Z " fill="#000000" transform="translate(224,458)"/>
<path d="M0 0 C3.63 0 7.26 0 11 0 C11.33 8.25 11.66 16.5 12 25 C14.97 22.525 14.97 22.525 18 20 C22.64195887 17.05088602 27.67946923 17.50120024 33 18 C37.6302235 19.77327709 39.60793512 22.72845558 42 27 C43.14781107 31.21173733 43.12978619 35.37412816 43.09765625 39.70703125 C43.0962413 40.43242599 43.09482635 41.15782074 43.09336853 41.90519714 C43.08779931 44.2076745 43.07525261 46.51005235 43.0625 48.8125 C43.05748102 50.37955588 43.05291881 51.9466133 43.04882812 53.51367188 C43.03783998 57.34248589 43.02059673 61.17122611 43 65 C39.37 65 35.74 65 32 65 C31.98541748 64.08710205 31.97083496 63.1742041 31.95581055 62.23364258 C31.89459205 58.83201389 31.82041127 55.43117319 31.73754883 52.0300293 C31.70438741 50.56073578 31.67632822 49.09131756 31.65356445 47.62182617 C31.61985481 45.50385632 31.56753567 43.38702005 31.51171875 41.26953125 C31.48553467 39.99698486 31.45935059 38.72443848 31.43237305 37.41333008 C30.97429104 33.79704292 30.22273177 31.86271439 28 29 C25.05185856 27.86094535 23.16804558 27.5759325 20.16015625 28.66796875 C16.05760934 30.79296662 14.12010887 32.81367107 12 37 C11.50059289 40.18409748 11.50059289 40.18409748 11.48828125 43.61328125 C11.45283203 44.86044922 11.41738281 46.10761719 11.38085938 47.39257812 C11.34702148 49.33293945 11.34702148 49.33293945 11.3125 51.3125 C11.27833984 52.62541016 11.24417969 53.93832031 11.20898438 55.29101562 C11.12660728 58.52725851 11.05741984 61.76323385 11 65 C7.37 65 3.74 65 0 65 C0 43.55 0 22.1 0 0 Z " fill="#000000" transform="translate(843,455)"/>
<path d="M0 0 C6.32952463 3.87632558 9.79311334 9.06456177 12.0546875 16.03125 C12.5 18.4375 12.5 18.4375 12.5 25.4375 C0.29 25.4375 -11.92 25.4375 -24.5 25.4375 C-22.04191609 33.2046095 -22.04191609 33.2046095 -16.5 37.4375 C-11.02041284 39.09171499 -7.93871993 38.12963402 -3.1015625 35.54296875 C-1.33834023 34.51589427 -1.33834023 34.51589427 -0.5 32.4375 C7.25 33.1875 7.25 33.1875 9.5 35.4375 C1.81359852 45.27329034 1.81359852 45.27329034 -4.5 46.4375 C-13.35803064 47.38811792 -21.30150435 47.1407199 -28.5 41.4375 C-34.11728391 35.17656898 -36.81230336 28.49557553 -36.4375 20.0625 C-35.61837312 13.35302255 -33.55288154 7.98156795 -28.2734375 3.58203125 C-20.0735515 -2.04036615 -9.47294257 -4.3042108 0 0 Z M-21.5 9.4375 C-24.36790933 13.60839436 -24.36790933 13.60839436 -25.5 18.4375 C-16.59 18.4375 -7.68 18.4375 1.5 18.4375 C0.50881939 13.48159694 -0.58498385 10.55277413 -4.5 7.4375 C-10.6851923 4.52751429 -16.25974478 4.93064393 -21.5 9.4375 Z " fill="#000000" transform="translate(691.5,474.5625)"/>
<path d="M0 0 C6.32952463 3.87632558 9.79311334 9.06456177 12.0546875 16.03125 C12.5 18.4375 12.5 18.4375 12.5 25.4375 C0.29 25.4375 -11.92 25.4375 -24.5 25.4375 C-22.04191609 33.2046095 -22.04191609 33.2046095 -16.5 37.4375 C-11.02041284 39.09171499 -7.93871993 38.12963402 -3.1015625 35.54296875 C-1.33834023 34.51589427 -1.33834023 34.51589427 -0.5 32.4375 C7.25 33.1875 7.25 33.1875 9.5 35.4375 C1.81359852 45.27329034 1.81359852 45.27329034 -4.5 46.4375 C-13.35803064 47.38811792 -21.30150435 47.1407199 -28.5 41.4375 C-34.11728391 35.17656898 -36.81230336 28.49557553 -36.4375 20.0625 C-35.61837312 13.35302255 -33.55288154 7.98156795 -28.2734375 3.58203125 C-20.0735515 -2.04036615 -9.47294257 -4.3042108 0 0 Z M-21.5 9.4375 C-24.36790933 13.60839436 -24.36790933 13.60839436 -25.5 18.4375 C-16.59 18.4375 -7.68 18.4375 1.5 18.4375 C0.50881939 13.48159694 -0.58498385 10.55277413 -4.5 7.4375 C-10.6851923 4.52751429 -16.25974478 4.93064393 -21.5 9.4375 Z " fill="#000000" transform="translate(451.5,474.5625)"/>
<path d="M0 0 C6.03143622 3.47175353 9.38163758 8.04784395 11.9375 14.4375 C13.39161862 22.72597613 12.94647026 29.59976051 8.5625 37 C3.89758327 42.27846528 -0.80134007 45.6498211 -7.92578125 46.3359375 C-16.29519891 46.42142696 -22.84227327 46.35772063 -29.17578125 40.3515625 C-34.77919244 34.22659275 -36.2989786 28.21054097 -36.4375 20 C-35.89131887 13.44582645 -32.83824616 7.81245838 -28.4375 3 C-20.17010839 -3.42853235 -9.49740951 -4.19885473 0 0 Z M-21.4375 11 C-24.57511742 15.10158422 -25.77465067 18.90016694 -25.5625 24.0625 C-24.79449052 29.3011331 -22.3874589 32.57390833 -18.4375 36 C-14.91410802 37.76169599 -11.27349841 37.66440495 -7.4375 37 C-3.71872895 34.916929 -1.19529026 32.25200131 1 28.625 C2.08693908 23.55261761 2.13871449 19.57700809 0.375 14.75 C-1.97649209 11.1822189 -4.62192157 8.90778921 -8.4375 7 C-14.12524798 6.45310116 -17.14267818 7.1823806 -21.4375 11 Z " fill="#000000" transform="translate(343.4375,475)"/>
<path d="M0 0 C4.43287244 2.70790686 6.6911176 6.51085281 8.3125 11.375 C8.46189774 13.29265594 8.56060283 15.21446522 8.62890625 17.13671875 C8.67080078 18.25498047 8.71269531 19.37324219 8.75585938 20.52539062 C8.79517578 21.69263672 8.83449219 22.85988281 8.875 24.0625 C8.91818359 25.24134766 8.96136719 26.42019531 9.00585938 27.63476562 C9.11201176 30.54805883 9.21406242 33.46143757 9.3125 36.375 C10.3025 36.87 10.3025 36.87 11.3125 37.375 C11.3125 40.015 11.3125 42.655 11.3125 45.375 C4.98252012 46.59230382 4.98252012 46.59230382 2 45.625 C0.3125 44.375 0.3125 44.375 -1.6875 41.375 C-2.56148437 41.91640625 -2.56148437 41.91640625 -3.453125 42.46875 C-10.21524118 46.29636293 -15.95013273 47.57138482 -23.6875 46.375 C-28.56919605 44.10849826 -31.28375754 41.18248493 -33.6875 36.375 C-34.36779541 32.48432174 -34.09135885 29.26348948 -32.4375 25.625 C-28.86315556 21.02941429 -26.39392076 18.89407034 -20.6875 17.375 C-17.91563429 17.21450925 -15.26439267 17.13909128 -12.5 17.1875 C-11.78908203 17.18814453 -11.07816406 17.18878906 -10.34570312 17.18945312 C-7.20180692 17.21607125 -4.68940612 17.37436463 -1.6875 18.375 C-2.11173244 16.91275201 -2.55240245 15.45526588 -3 14 C-3.24363281 13.18789063 -3.48726562 12.37578125 -3.73828125 11.5390625 C-4.60118185 9.04315371 -4.60118185 9.04315371 -7.6875 7.375 C-15.20341267 6.31537952 -21.11900527 7.74205477 -27.6875 11.375 C-30.6875 6.75 -30.6875 6.75 -30.6875 3.375 C-29.417947 2.72665346 -28.14680294 2.08142185 -26.875 1.4375 C-26.16730469 1.07785156 -25.45960938 0.71820313 -24.73046875 0.34765625 C-17.77382271 -2.96439894 -7.09249462 -3.23729395 0 0 Z M-21.6875 26.375 C-24.00287595 29.19208195 -24.00287595 29.19208195 -23.5 32.375 C-22.52604322 36.08412582 -22.52604322 36.08412582 -19.6875 38.375 C-15.31605061 39.66072041 -12.49827553 39.58701562 -8.4375 37.6875 C-5.43781374 35.98418978 -3.19493246 34.57829398 -1.6875 31.375 C-1.43663276 28.20767579 -1.43663276 28.20767579 -1.6875 25.375 C-8.9064352 22.48742592 -14.98521078 22.0663855 -21.6875 26.375 Z " fill="#000000" transform="translate(741.6875,474.625)"/>
<path d="M0 0 C3.96 0 7.92 0 12 0 C13.7154487 4.35743741 15.42425649 8.71739779 17.12695312 13.07983398 C17.70716309 14.56362037 18.28918376 16.04670004 18.87304688 17.52905273 C19.71180241 19.65946325 20.54402056 21.79232763 21.375 23.92578125 C21.63748535 24.58838455 21.8999707 25.25098785 22.17041016 25.93367004 C23.27483362 28.78572234 24 30.91109914 24 34 C24.66 34 25.32 34 26 34 C26.24621094 32.7728125 26.49242187 31.545625 26.74609375 30.28125 C28.0952526 24.21419556 30.07222524 18.38181377 32.0625 12.5 C32.60874023 10.85644531 32.60874023 10.85644531 33.16601562 9.1796875 C35.86631944 1.13368056 35.86631944 1.13368056 37 0 C40.33327842 -0.1424478 43.66453893 -0.04222103 47 0 C45.07987262 7.46460854 42.79944572 14.69763477 40.12890625 21.92578125 C39.76530502 22.91700485 39.4017038 23.90822845 39.02708435 24.92948914 C38.26386222 27.00506418 37.49821455 29.07974883 36.73022461 31.15356445 C35.56029099 34.31847582 34.40385802 37.48811124 33.24804688 40.65820312 C32.50081438 42.68519623 31.75279482 44.71189941 31.00390625 46.73828125 C30.49120934 48.14935905 30.49120934 48.14935905 29.96815491 49.58894348 C27.18486949 57.04487678 24.51210877 63.31481457 17 67 C13.96198357 67.35830426 11.03617281 67.38990851 8 67 C7 66 7 66 6.90234375 63.93359375 C6.91394531 63.10988281 6.92554688 62.28617188 6.9375 61.4375 C6.94652344 60.61121094 6.95554687 59.78492188 6.96484375 58.93359375 C6.97644531 58.29550781 6.98804688 57.65742187 7 57 C9.64 57 12.28 57 15 57 C15.5381968 55.63170304 16.05472409 54.25487535 16.5625 52.875 C16.85253906 52.10929688 17.14257812 51.34359375 17.44140625 50.5546875 C18.83874678 44.16405318 15.63410723 38.24580286 13.18359375 32.48046875 C12.80767593 31.58129227 12.43175812 30.68211578 12.04444885 29.75569153 C10.84813282 26.89706699 9.64320329 24.0421763 8.4375 21.1875 C7.22984793 18.31431943 6.02399012 15.44039985 4.81983948 12.56575012 C4.07104661 10.77965815 3.3199114 8.99454609 2.56626892 7.210495 C2.22914383 6.40908585 1.89201874 5.6076767 1.54467773 4.78198242 C1.24569077 4.07393967 0.9467038 3.36589691 0.63865662 2.63639832 C0 1 0 1 0 0 Z " fill="#000000" transform="translate(531,474)"/>
<path d="M0 0 C4.08462825 2.11767627 6.52732501 4.50114251 9 8.375 C8.67 9.365 8.34 10.355 8 11.375 C5.10280188 12.70986607 2.1812473 13.26660997 -1 13.375 C-3.9375 11.5625 -3.9375 11.5625 -6 9.375 C-9.10953379 7.8202331 -11.56266761 8.08855563 -15 8.375 C-18.94255579 10.27045952 -20.66251495 11.81978266 -22.9375 15.5625 C-24.64022391 21.67227404 -24.14471659 26.20398579 -21.1875 31.8125 C-18.56376564 34.8860174 -17.15209818 36.17046174 -13.109375 36.5546875 C-9.31125131 36.68129162 -6.17525861 36.69538129 -3 34.375 C-2.34 33.385 -1.68 32.395 -1 31.375 C0.64767247 31.65609113 2.29313145 31.95018526 3.9375 32.25 C5.31228516 32.49363281 5.31228516 32.49363281 6.71484375 32.7421875 C7.46894531 32.95101562 8.22304688 33.15984375 9 33.375 C9.33 34.035 9.66 34.695 10 35.375 C2.31359852 45.21079034 2.31359852 45.21079034 -4 46.375 C-12.86512421 47.32637918 -20.79226699 47.07228896 -28 41.375 C-33.8192497 34.9980722 -36.33364131 28.05456327 -36 19.5 C-35.11080229 12.8667895 -32.13682965 6.95548628 -26.9296875 2.671875 C-18.85863624 -2.51027599 -9.0338925 -3.66526615 0 0 Z " fill="#000000" transform="translate(826,474.625)"/>
<path d="M0 0 C3.3 0 6.6 0 10 0 C10 5.28 10 10.56 10 16 C13.3 16 16.6 16 20 16 C20 18.64 20 21.28 20 24 C16.7 24 13.4 24 10 24 C10.08069751 28.27161792 10.19355745 32.54178934 10.3125 36.8125 C10.33505859 38.02744141 10.35761719 39.24238281 10.38085938 40.49414062 C10.4340332 42.23920898 10.4340332 42.23920898 10.48828125 44.01953125 C10.51446533 45.09307861 10.54064941 46.16662598 10.56762695 47.27270508 C10.78456814 50.01689246 10.78456814 50.01689246 12.40429688 51.86914062 C13.95223858 53.18517368 13.95223858 53.18517368 16.04296875 53.07421875 C16.75066406 52.94660156 17.45835937 52.81898438 18.1875 52.6875 C19.445625 52.460625 20.70375 52.23375 22 52 C22.66 54.97 23.32 57.94 24 61 C18.22446512 63.56690439 12.20351538 63.72982534 6 63 C2.92634214 61.19196596 1.56980268 60.13960536 0 57 C-0.08649451 54.51900266 -0.11565054 52.06655072 -0.09765625 49.5859375 C-0.0962413 48.85629791 -0.09482635 48.12665833 -0.09336853 47.37490845 C-0.08776531 45.04156415 -0.07521235 42.70831536 -0.0625 40.375 C-0.05748541 38.79427222 -0.05292243 37.21354293 -0.04882812 35.6328125 C-0.03779484 31.75517146 -0.02052811 27.87760193 0 24 C-1.98 24 -3.96 24 -6 24 C-6 21.36 -6 18.72 -6 16 C-4.02 16 -2.04 16 0 16 C0 10.72 0 5.44 0 0 Z " fill="#000000" transform="translate(507,458)"/>
<path d="M0 0 C3.3 0 6.6 0 10 0 C10.33 2.31 10.66 4.62 11 7 C11.48210938 6.57847656 11.96421875 6.15695312 12.4609375 5.72265625 C13.09257813 5.17480469 13.72421875 4.62695312 14.375 4.0625 C15.31472656 3.24458984 15.31472656 3.24458984 16.2734375 2.41015625 C19.77577411 -0.45034945 22.57076024 -0.08202296 27 0 C27 2.97 27 5.94 27 9 C26.33613281 9.15855469 25.67226563 9.31710937 24.98828125 9.48046875 C23.66376953 9.83044922 23.66376953 9.83044922 22.3125 10.1875 C21.44238281 10.40792969 20.57226562 10.62835938 19.67578125 10.85546875 C16.18875848 12.3469982 14.42680504 14.08464341 12 17 C11.22772188 20.26868785 11.22772188 20.26868785 11.29296875 23.83203125 C11.26396484 25.12431641 11.23496094 26.41660156 11.20507812 27.74804688 C11.1986898 29.10286219 11.19283712 30.45768013 11.1875 31.8125 C11.16434252 33.1868884 11.13897455 34.56124144 11.11132812 35.93554688 C11.05246658 39.29065515 11.01617663 42.64445874 11 46 C7.37 46 3.74 46 0 46 C0 30.82 0 15.64 0 0 Z " fill="#000000" transform="translate(761,474)"/>
<path d="M0 0 C3.3 0 6.6 0 10 0 C10.33 2.31 10.66 4.62 11 7 C11.48210937 6.57847656 11.96421875 6.15695312 12.4609375 5.72265625 C13.09257812 5.17480469 13.72421875 4.62695312 14.375 4.0625 C15.31472656 3.24458984 15.31472656 3.24458984 16.2734375 2.41015625 C19.77577411 -0.45034945 22.57076024 -0.08202296 27 0 C27 2.97 27 5.94 27 9 C26.33613281 9.15855469 25.67226563 9.31710937 24.98828125 9.48046875 C23.66376953 9.83044922 23.66376953 9.83044922 22.3125 10.1875 C21.44238281 10.40792969 20.57226562 10.62835938 19.67578125 10.85546875 C16.18875848 12.3469982 14.42680504 14.08464341 12 17 C11.22772188 20.26868785 11.22772188 20.26868785 11.29296875 23.83203125 C11.26396484 25.12431641 11.23496094 26.41660156 11.20507812 27.74804688 C11.1986898 29.10286219 11.19283712 30.45768013 11.1875 31.8125 C11.16434252 33.1868884 11.13897455 34.56124144 11.11132812 35.93554688 C11.05246658 39.29065515 11.01617663 42.64445874 11 46 C7.37 46 3.74 46 0 46 C0 30.82 0 15.64 0 0 Z " fill="#000000" transform="translate(471,474)"/>
<path d="M0 0 C3.3 0 6.6 0 10 0 C10.33 2.31 10.66 4.62 11 7 C11.48210937 6.57847656 11.96421875 6.15695312 12.4609375 5.72265625 C13.09257812 5.17480469 13.72421875 4.62695312 14.375 4.0625 C15.31472656 3.24458984 15.31472656 3.24458984 16.2734375 2.41015625 C19.77577411 -0.45034945 22.57076024 -0.08202296 27 0 C27 2.97 27 5.94 27 9 C26.33613281 9.15855469 25.67226563 9.31710937 24.98828125 9.48046875 C23.66376953 9.83044922 23.66376953 9.83044922 22.3125 10.1875 C21.44238281 10.40792969 20.57226562 10.62835938 19.67578125 10.85546875 C16.18875848 12.3469982 14.42680504 14.08464341 12 17 C11.22772188 20.26868785 11.22772188 20.26868785 11.29296875 23.83203125 C11.26396484 25.12431641 11.23496094 26.41660156 11.20507812 27.74804688 C11.1986898 29.10286219 11.19283712 30.45768013 11.1875 31.8125 C11.16434252 33.1868884 11.13897455 34.56124144 11.11132812 35.93554688 C11.05246658 39.29065515 11.01617663 42.64445874 11 46 C7.37 46 3.74 46 0 46 C0 30.82 0 15.64 0 0 Z " fill="#000000" transform="translate(277,474)"/>
<path d="M0 0 C7.92 0 15.84 0 24 0 C24 7.92 24 15.84 24 24 C16.08 24 8.16 24 0 24 C0 16.08 0 8.16 0 0 Z " fill="#E2777D" transform="translate(461,334)"/>
<path d="M0 0 C7.92 0 15.84 0 24 0 C24 7.92 24 15.84 24 24 C16.08 24 8.16 24 0 24 C0 16.08 0 8.16 0 0 Z " fill="#E2777D" transform="translate(429,334)"/>
<path d="M0 0 C7.92 0 15.84 0 24 0 C24 7.59 24 15.18 24 23 C16.08 23 8.16 23 0 23 C0 15.41 0 7.82 0 0 Z " fill="#E2777D" transform="translate(461,365)"/>
<path d="M0 0 C7.92 0 15.84 0 24 0 C24 7.59 24 15.18 24 23 C16.08 23 8.16 23 0 23 C0 15.41 0 7.82 0 0 Z " fill="#E2777D" transform="translate(429,365)"/>
</svg>
